<?xml version="1.0" encoding="utf-8"?>
<!-- Generator: Adobe Illustrator 27.6.1, SVG Export Plug-In . SVG Version: 6.00 Build 0)  -->
<svg version="1.1" id="Layer_1" xmlns="http://www.w3.org/2000/svg" xmlns:xlink="http://www.w3.org/1999/xlink" x="0px" y="0px"
	 viewBox="0 0 132 48" style="enable-background:new 0 0 132 48;" xml:space="preserve">
<style type="text/css">
	.st0{fill-rule:evenodd;clip-rule:evenodd;fill:#FFE090;}
	.st1{fill-rule:evenodd;clip-rule:evenodd;fill:#1B181E;}
</style>
<g>
	<rect x="0" class="st0" width="132" height="48"/>
	<g>
		<path class="st1" d="M25.7,25.5c-0.3-0.5-0.8-1-1.5-1.4c-0.6-0.4-1.7-0.9-3.2-1.6c-1.8-0.8-3-1.4-3.6-1.8
			c-0.4-0.4-0.6-0.9-0.6-1.3c0-0.6,0.3-1.2,1-1.6c0.6-0.5,1.5-0.7,2.5-0.7c1,0,1.8,0.2,2.5,0.7c0.6,0.4,1.3,1.1,1.6,2
			c0,0.1,0.1,0.2,0.2,0.2c0.1,0,0.2-0.1,0.2-0.2l0.2-2.5c-0.5-0.3-1.3-0.7-1.8-0.8c-0.7-0.2-1.5-0.3-2.5-0.3c-1.7,0-3.1,0.4-4.1,1.1
			c-1,0.7-1.5,1.7-1.5,2.7c0,0.6,0.1,1.1,0.4,1.6c0.4,0.6,1,1.1,1.8,1.6c0.5,0.3,1.5,0.8,3,1.5c1.6,0.7,2.6,1.3,3.1,1.8
			c0.5,0.5,0.8,1,0.8,1.6c0,0.4-0.2,0.9-0.5,1.3c-0.3,0.5-0.8,0.8-1.4,1c-0.6,0.2-1.2,0.4-2,0.4c-1.2,0-2.2-0.4-3.1-1.1
			c-0.9-0.7-1.5-1.4-1.6-2.2c0-0.1,0-0.1,0-0.2c0-0.2-0.1-0.3-0.3-0.3c-0.2,0-0.3,0.1-0.3,0.3c0,0.1-0.3,3-0.3,3
			c0,0.1,0.1,0.3,0.2,0.4c0.2,0.1,0.6,0.3,1.3,0.5c1.2,0.3,2.4,0.5,3.6,0.5c1.5,0,2.6-0.2,3.5-0.5c0.9-0.4,1.6-0.9,2.1-1.6
			c0.5-0.7,0.8-1.5,0.8-2.3C26.2,26.6,26.1,26,25.7,25.5"/>
		<path class="st1" d="M65.8,22.9c1.8-0.6,3.1-1.7,3.1-3c0-1.9-2.7-3.5-6-3.5l0,0c-1.1,0-2.5,0-3,0c-1.4,0-2.3,0.1-3.4,0.2l-0.9,0
			l0,0c-0.2,0-0.3,0.1-0.4,0.2c0,0.2,0.1,0.3,0.3,0.3l1.6,0.3v0c0.5,0.1,0.5,0.4,0.4,0.8v0v11.9c0,0.4-0.3,0.7-0.8,0.8l0,0l-1.3,0.3
			c-0.2,0-0.3,0.1-0.3,0.3c0,0.1,0.2,0.2,0.4,0.2h0h8.2h0c3.8,0,6.8-2,6.8-4.5C70.5,25.2,68.5,23.5,65.8,22.9 M62.3,17
			c1,0,1.9,0.2,2.5,0.5c0.1,0.1,2.8,1.3,1.1,3.9c0,0.1-1,1.6-4.3,1.6c-0.5,0-1.1,0-1.8-0.1l0-5.5C60.2,17.2,61.2,17,62.3,17
			 M67.3,29.4c0,0-1.1,1.4-4.1,1.5c0,0-0.1,0-0.2,0c-0.7,0-3-0.1-3.1-1.6l0-5.3c0.3,0,1.3-0.2,2.4-0.2c1.7,0,3,0.2,3.9,0.7
			c0,0,0.9,0.5,1.4,1.3C68.4,26.9,68.2,28.1,67.3,29.4"/>
		<path class="st1" d="M95.1,31.1L95.1,31.1l-1.3-0.3h0c-0.4,0-0.8-0.4-0.8-0.8v0V18v0c0-0.4,0.3-0.7,0.8-0.8l0,0l1.3-0.3
			c0.2,0,0.3-0.1,0.3-0.3c0-0.2-0.2-0.3-0.4-0.2l0,0h-2h-2.4h-2h0c-0.2,0-0.3,0.1-0.3,0.2c0,0.1,0.1,0.3,0.3,0.3l1.3,0.3
			c0.5,0,0.8,0.4,0.8,0.8v0v5.6h-9.9v-5.7c0-0.3,0.3-0.7,0.8-0.7l0,0l1.3-0.3h0c0.2,0,0.3-0.1,0.3-0.3c0-0.2-0.2-0.3-0.4-0.2l0,0h-2
			h-2.4v0h-2l0,0c-0.2,0-0.3,0.1-0.4,0.2c0,0.1,0.1,0.3,0.3,0.3v0l1.3,0.3c0.4,0,0.7,0.3,0.8,0.6v12.3c-0.1,0.3-0.4,0.6-0.8,0.6h0
			l-1.3,0.3v0c-0.2,0-0.3,0.1-0.3,0.3c0,0.2,0.2,0.3,0.4,0.2h0h2h2.4h2h0c0.2,0,0.3-0.1,0.4-0.2c0-0.2-0.1-0.3-0.3-0.3v0l-1.3-0.3h0
			c-0.4,0-0.8-0.3-0.8-0.7v-5.7h9.9V30v0c0,0.4-0.3,0.7-0.8,0.8l-1.3,0.3v0c-0.2,0-0.3,0.1-0.3,0.3c0,0.2,0.2,0.3,0.3,0.2h0h2v0
			l2.4,0v0l2,0h0c0.2,0,0.3-0.1,0.4-0.2C95.4,31.3,95.3,31.1,95.1,31.1"/>
		<path class="st1" d="M117.2,31.4L117.2,31.4c0-0.1-0.1-0.3-0.3-0.3l-0.9-0.2l0,0c-0.5-0.1-0.9-0.4-1-0.7l0,0l-6.3-13.8H108
			l-6.3,13.8v0c-0.2,0.4-0.5,0.6-1,0.7l0,0l-0.9,0.2c-0.2,0-0.3,0.1-0.3,0.3c0,0.2,0.2,0.2,0.3,0.2h4.7c0.2,0,0.4-0.1,0.4-0.2
			c0-0.2-0.1-0.3-0.3-0.3l-1.2-0.3c-0.2,0-0.4-0.1-0.5-0.3c-0.1-0.1-0.1-0.3,0-0.5v0v0l2.1-4.5h5.7l2,4.3l0,0c0.3,0.5-0.1,0.9-0.6,1
			l-1.3,0.3c-0.2,0-0.3,0.1-0.3,0.3c0,0.2,0.2,0.2,0.4,0.2h0h5.9C117,31.7,117.2,31.6,117.2,31.4C117.2,31.4,117.2,31.4,117.2,31.4
			 M105.4,24.6l2.5-5.3l2.4,5.3H105.4z"/>
		<path class="st1" d="M50.2,23.8c0-0.9-0.2-1.8-0.5-2.7c-0.3-0.7-0.6-1.3-1.1-1.9c-0.7-0.8-1.5-1.4-2.2-1.8
			c-0.7-0.4-1.5-0.7-2.4-0.9c-0.9-0.2-1.8-0.3-2.7-0.3h-0.4h-0.4c-0.9,0-1.8,0.1-2.7,0.3c-0.9,0.2-1.7,0.5-2.4,0.9
			c-0.7,0.4-1.4,1-2.2,1.8c-0.5,0.6-0.9,1.2-1.1,1.9c-0.3,0.9-0.5,1.7-0.5,2.7c0,0.1,0,0.1,0,0.2c0,0.1,0,0.1,0,0.2
			c0,0.9,0.2,1.8,0.5,2.7c0.3,0.7,0.6,1.3,1.1,1.9c0.7,0.8,1.5,1.4,2.2,1.8c0.7,0.4,1.5,0.7,2.4,0.9c0.9,0.2,1.8,0.3,2.7,0.3h0.4
			h0.4c0.9,0,1.8-0.1,2.7-0.3c0.9-0.2,1.7-0.5,2.4-0.9c0.7-0.4,1.5-1,2.2-1.8c0.5-0.6,0.9-1.2,1.1-1.9c0.3-0.9,0.5-1.7,0.5-2.7
			c0-0.1,0-0.1,0-0.2C50.2,23.9,50.2,23.9,50.2,23.8 M47.8,24c0,1-0.2,2.1-0.5,3.1c-0.3,0.8-0.7,1.5-1.3,2.1
			c-0.6,0.6-1.4,1.1-2.3,1.4c-0.9,0.3-1.8,0.5-2.8,0.5h0h0c-1,0-1.9-0.1-2.8-0.5c-0.9-0.3-1.6-0.8-2.2-1.4c-0.6-0.6-1.1-1.3-1.3-2.1
			c-0.4-1-0.5-2.1-0.5-3.1v0v0c0-1,0.2-2.1,0.5-3.1c0.3-0.8,0.7-1.5,1.3-2.1c0.6-0.6,1.4-1.1,2.2-1.4c0.9-0.3,1.8-0.5,2.8-0.5h0h0
			c1,0,1.9,0.1,2.8,0.5c0.9,0.3,1.6,0.8,2.3,1.4c0.6,0.6,1.1,1.3,1.3,2.1C47.6,21.9,47.8,22.9,47.8,24L47.8,24L47.8,24z"/>
	</g>
</g>
</svg>
