<?xml version="1.0" encoding="utf-8"?>
<!-- Generator: Adobe Illustrator 27.7.0, SVG Export Plug-In . SVG Version: 6.00 Build 0)  -->
<svg version="1.1" id="Layer_1" xmlns="http://www.w3.org/2000/svg" xmlns:xlink="http://www.w3.org/1999/xlink" x="0px" y="0px"
	 viewBox="0 0 510.98 393" style="enable-background:new 0 0 510.98 393;" xml:space="preserve">
<style type="text/css">
	.st0{fill:#F8E296;}
	.st1{fill:none;stroke:#F0CF5B;stroke-width:10;stroke-miterlimit:10;}
	.st2{fill:#222221;}
	.st3{fill:#F0CF5B;}
</style>
<g>
	<g>
		<rect x="5.04" y="4.57" class="st0" width="178.59" height="249.73"/>
	</g>
	<g>
		<path class="st2" d="M31.82,32.87h9.61l22.59,55.18h0.78l22.59-55.18h9.61v66.47h-7.53v-50.5h-0.65l-20.77,50.5h-7.27L40,48.84
			h-0.65v50.5h-7.53V32.87z"/>
		<path class="st2" d="M107.37,32.87h9.22l18.43,31.03h0.78l18.44-31.03h9.22l-24.02,39.08v27.39h-8.05V71.94L107.37,32.87z"/>
		<path class="st2" d="M235.9,49.48c-0.39-3.29-1.97-5.84-4.74-7.66c-2.77-1.82-6.17-2.73-10.19-2.73c-2.94,0-5.51,0.48-7.71,1.43
			c-2.2,0.95-3.91,2.26-5.13,3.93c-1.22,1.67-1.83,3.56-1.83,5.68c0,1.77,0.43,3.29,1.28,4.56c0.85,1.27,1.95,2.32,3.29,3.15
			c1.34,0.83,2.75,1.51,4.22,2.04c1.47,0.53,2.82,0.96,4.06,1.28l6.75,1.82c1.73,0.45,3.66,1.08,5.79,1.88
			c2.13,0.8,4.18,1.89,6.13,3.26c1.96,1.37,3.58,3.13,4.85,5.27c1.28,2.14,1.92,4.77,1.92,7.89c0,3.59-0.94,6.84-2.81,9.74
			s-4.6,5.2-8.18,6.91c-3.58,1.71-7.93,2.56-13.03,2.56c-4.76,0-8.88-0.77-12.35-2.3c-3.47-1.54-6.2-3.68-8.18-6.43
			c-1.98-2.75-3.1-5.94-3.36-9.57H205c0.22,2.51,1.07,4.58,2.55,6.22c1.48,1.63,3.36,2.84,5.65,3.64c2.28,0.79,4.74,1.18,7.38,1.18
			c3.07,0,5.83-0.5,8.28-1.51c2.44-1.01,4.38-2.41,5.81-4.22c1.43-1.81,2.14-3.92,2.14-6.35c0-2.21-0.62-4-1.85-5.39
			c-1.23-1.38-2.86-2.51-4.87-3.38c-2.01-0.87-4.19-1.62-6.52-2.27l-8.18-2.34c-5.19-1.49-9.3-3.62-12.33-6.39
			c-3.03-2.77-4.54-6.39-4.54-10.87c0-3.72,1.01-6.97,3.03-9.75c2.02-2.78,4.75-4.94,8.18-6.49c3.43-1.55,7.27-2.32,11.51-2.32
			c4.28,0,8.09,0.76,11.42,2.29c3.33,1.53,5.98,3.61,7.94,6.25c1.96,2.64,2.99,5.64,3.1,8.99H235.9z"/>
		<path class="st2" d="M313.92,66.1c0,7.01-1.27,13.07-3.8,18.18c-2.53,5.11-6,9.04-10.42,11.81c-4.41,2.77-9.46,4.15-15.12,4.15
			c-5.67,0-10.71-1.38-15.12-4.15c-4.41-2.77-7.89-6.71-10.42-11.81c-2.53-5.11-3.8-11.17-3.8-18.18s1.27-13.07,3.8-18.18
			c2.53-5.11,6-9.04,10.42-11.81c4.41-2.77,9.46-4.15,15.12-4.15c5.67,0,10.71,1.38,15.12,4.15c4.41,2.77,7.89,6.71,10.42,11.81
			C312.66,53.03,313.92,59.09,313.92,66.1z M306.13,66.1c0-5.76-0.96-10.61-2.87-14.57c-1.92-3.96-4.5-6.96-7.76-8.99
			c-3.26-2.03-6.9-3.05-10.92-3.05c-4.02,0-7.67,1.02-10.92,3.05c-3.26,2.03-5.84,5.03-7.76,8.99c-1.92,3.96-2.87,8.82-2.87,14.57
			c0,5.76,0.96,10.61,2.87,14.57c1.91,3.96,4.5,6.96,7.76,8.99c3.26,2.03,6.9,3.05,10.92,3.05c4.02,0,7.66-1.02,10.92-3.05
			c3.26-2.03,5.84-5.03,7.76-8.99C305.18,76.72,306.13,71.86,306.13,66.1z"/>
		<path class="st2" d="M327.43,99.34V32.87h23.24c4.63,0,8.45,0.79,11.46,2.39c3.01,1.59,5.25,3.72,6.72,6.39
			c1.47,2.67,2.21,5.63,2.21,8.88c0,2.86-0.5,5.22-1.51,7.08c-1.01,1.86-2.33,3.33-3.96,4.41c-1.63,1.08-3.4,1.88-5.31,2.4v0.65
			c2.03,0.13,4.08,0.84,6.13,2.14c2.06,1.3,3.78,3.16,5.16,5.58c1.38,2.42,2.08,5.39,2.08,8.89c0,3.33-0.76,6.33-2.27,8.99
			c-1.52,2.66-3.91,4.77-7.17,6.33c-3.27,1.56-7.52,2.34-12.76,2.34H327.43z M335.47,62.08h14.93c2.42,0,4.61-0.48,6.57-1.43
			c1.96-0.95,3.52-2.29,4.67-4.02c1.16-1.73,1.74-3.76,1.74-6.1c0-2.92-1.02-5.4-3.05-7.45c-2.03-2.04-5.26-3.07-9.67-3.07h-15.19
			V62.08z M335.47,92.2h15.97c5.26,0,9-1.02,11.21-3.07c2.22-2.05,3.33-4.53,3.33-7.45c0-2.25-0.57-4.33-1.72-6.25
			c-1.15-1.92-2.78-3.45-4.9-4.61c-2.12-1.16-4.63-1.74-7.53-1.74h-16.36V92.2z"/>
		<path class="st2" d="M386.88,99.34V32.87h8.05v29.6h35.44v-29.6h8.05v66.47h-8.05V69.61h-35.44v29.73H386.88z"/>
		<path class="st2" d="M457.25,99.34h-8.44l24.41-66.47h8.31l24.41,66.47h-8.44l-19.86-55.95h-0.52L457.25,99.34z M460.37,73.37
			h34.01v7.14h-34.01V73.37z"/>
	</g>
	<g>
		<path class="st2" d="M265.17,149.22c-1.86,0-3.46-0.44-4.8-1.32c-1.34-0.88-2.37-2.08-3.09-3.62c-0.72-1.54-1.08-3.3-1.08-5.27
			c0-2.01,0.37-3.79,1.12-5.33c0.74-1.54,1.78-2.75,3.12-3.62c1.34-0.87,2.9-1.31,4.69-1.31c1.39,0,2.65,0.26,3.77,0.77
			c1.12,0.52,2.03,1.24,2.75,2.17c0.71,0.93,1.16,2.01,1.33,3.25h-3.04c-0.23-0.9-0.75-1.7-1.54-2.41c-0.79-0.7-1.86-1.05-3.2-1.05
			c-1.19,0-2.22,0.31-3.11,0.92c-0.89,0.61-1.58,1.48-2.08,2.59c-0.49,1.11-0.74,2.42-0.74,3.91c0,1.53,0.24,2.86,0.73,4
			c0.49,1.13,1.17,2.02,2.06,2.64c0.89,0.63,1.94,0.94,3.14,0.94c0.79,0,1.51-0.14,2.15-0.41c0.64-0.27,1.19-0.67,1.64-1.19
			c0.45-0.52,0.77-1.14,0.95-1.86h3.04c-0.17,1.17-0.59,2.22-1.27,3.15c-0.68,0.93-1.56,1.67-2.67,2.22
			C267.92,148.95,266.63,149.22,265.17,149.22z"/>
		<path class="st2" d="M277.4,148.81V129h2.94V132h0.21c0.36-0.98,1.01-1.78,1.96-2.39c0.95-0.61,2.01-0.92,3.2-0.92
			c0.22,0,0.5,0,0.84,0.01c0.33,0.01,0.59,0.02,0.76,0.04v3.09c-0.1-0.03-0.34-0.07-0.7-0.12c-0.37-0.06-0.75-0.08-1.15-0.08
			c-0.96,0-1.82,0.2-2.57,0.6c-0.75,0.4-1.35,0.95-1.78,1.65c-0.43,0.7-0.65,1.5-0.65,2.39v12.53H277.4z"/>
		<path class="st2" d="M296.74,149.28c-1.26,0-2.39-0.24-3.42-0.72c-1.02-0.48-1.84-1.17-2.44-2.08c-0.6-0.91-0.9-2.01-0.9-3.3
			c0-1.13,0.22-2.06,0.67-2.77c0.45-0.71,1.04-1.27,1.79-1.67c0.75-0.4,1.58-0.71,2.48-0.91c0.91-0.2,1.82-0.36,2.74-0.48
			c1.2-0.15,2.18-0.27,2.93-0.35c0.75-0.08,1.3-0.22,1.65-0.42c0.35-0.2,0.52-0.54,0.52-1.03v-0.1c0-1.27-0.35-2.26-1.04-2.97
			c-0.69-0.7-1.74-1.06-3.14-1.06c-1.45,0-2.59,0.32-3.42,0.95c-0.83,0.64-1.41,1.32-1.74,2.04l-2.89-1.03
			c0.52-1.2,1.21-2.14,2.07-2.82c0.86-0.68,1.81-1.15,2.84-1.42c1.03-0.27,2.04-0.41,3.04-0.41c0.64,0,1.37,0.07,2.2,0.23
			c0.83,0.15,1.63,0.46,2.41,0.92c0.78,0.46,1.42,1.17,1.94,2.1c0.52,0.94,0.77,2.19,0.77,3.77v13.05h-3.04v-2.68h-0.15
			c-0.21,0.43-0.55,0.89-1.03,1.38c-0.48,0.49-1.12,0.91-1.92,1.25C298.87,149.1,297.89,149.28,296.74,149.28z M297.2,146.54
			c1.2,0,2.22-0.24,3.05-0.71c0.83-0.47,1.46-1.08,1.88-1.83c0.43-0.75,0.64-1.53,0.64-2.36v-2.79c-0.13,0.15-0.41,0.3-0.84,0.42
			c-0.43,0.13-0.93,0.23-1.5,0.32c-0.56,0.09-1.11,0.17-1.64,0.23c-0.53,0.06-0.96,0.12-1.28,0.16c-0.79,0.1-1.53,0.27-2.21,0.5
			c-0.68,0.23-1.23,0.57-1.65,1.02c-0.42,0.45-0.63,1.06-0.63,1.84c0,1.06,0.39,1.86,1.18,2.39
			C294.99,146.27,295.99,146.54,297.2,146.54z"/>
		<path class="st2" d="M320.21,129v2.58h-10.68V129H320.21z M312.73,148.81v-22.54c0-1.14,0.27-2.08,0.8-2.84
			c0.53-0.76,1.23-1.32,2.08-1.7c0.85-0.38,1.75-0.57,2.7-0.57c0.75,0,1.36,0.06,1.83,0.18s0.83,0.23,1.06,0.34l-0.88,2.63
			c-0.15-0.05-0.37-0.12-0.64-0.19c-0.27-0.08-0.63-0.12-1.06-0.12c-1.01,0-1.73,0.25-2.17,0.76c-0.44,0.51-0.66,1.25-0.66,2.23
			v21.82H312.73z"/>
		<path class="st2" d="M333.11,129v2.58h-10.26V129H333.11z M325.83,124.26h3.04v18.88c0,0.86,0.13,1.5,0.38,1.93
			c0.25,0.43,0.58,0.71,0.98,0.85c0.4,0.14,0.82,0.21,1.27,0.21c0.34,0,0.61-0.02,0.83-0.06c0.21-0.04,0.39-0.07,0.52-0.1l0.62,2.73
			c-0.21,0.08-0.49,0.16-0.86,0.24c-0.37,0.08-0.84,0.12-1.41,0.12c-0.86,0-1.7-0.19-2.52-0.56c-0.82-0.37-1.5-0.93-2.04-1.69
			c-0.54-0.76-0.81-1.71-0.81-2.86V124.26z"/>
		<path class="st2" d="M345.8,149.22c-1.91,0-3.55-0.42-4.93-1.27c-1.38-0.85-2.44-2.03-3.19-3.56c-0.74-1.53-1.11-3.3-1.11-5.33
			s0.37-3.82,1.11-5.37c0.74-1.55,1.78-2.76,3.12-3.64c1.34-0.87,2.9-1.31,4.69-1.31c1.03,0,2.05,0.17,3.06,0.52
			c1.01,0.34,1.92,0.9,2.75,1.67c0.83,0.77,1.48,1.79,1.97,3.05c0.49,1.26,0.73,2.82,0.73,4.67v1.29h-15.27v-2.63h12.17
			c0-1.12-0.22-2.12-0.66-2.99c-0.44-0.88-1.07-1.57-1.88-2.08c-0.81-0.51-1.77-0.76-2.87-0.76c-1.21,0-2.26,0.3-3.14,0.9
			c-0.88,0.6-1.56,1.37-2.03,2.33c-0.47,0.95-0.71,1.98-0.71,3.07v1.75c0,1.5,0.26,2.76,0.78,3.8c0.52,1.04,1.24,1.82,2.17,2.36
			c0.93,0.54,2.01,0.81,3.24,0.81c0.8,0,1.52-0.11,2.17-0.34c0.65-0.23,1.21-0.57,1.68-1.03c0.47-0.46,0.84-1.03,1.1-1.72l2.94,0.83
			c-0.31,1-0.83,1.87-1.56,2.62c-0.73,0.75-1.63,1.34-2.71,1.75C348.34,149.02,347.14,149.22,345.8,149.22z"/>
		<path class="st2" d="M366.12,149.22c-1.65,0-3.11-0.42-4.37-1.26c-1.26-0.84-2.25-2.02-2.97-3.56c-0.71-1.53-1.07-3.35-1.07-5.45
			c0-2.08,0.36-3.89,1.07-5.42c0.71-1.53,1.71-2.71,2.98-3.55c1.27-0.83,2.74-1.25,4.41-1.25c1.29,0,2.31,0.21,3.06,0.64
			c0.75,0.43,1.33,0.91,1.73,1.44c0.4,0.54,0.71,0.98,0.94,1.32h0.26v-9.75h3.04v26.41h-2.94v-3.04h-0.36
			c-0.22,0.36-0.54,0.81-0.95,1.36c-0.41,0.55-1,1.03-1.77,1.46C368.41,149.01,367.39,149.22,366.12,149.22z M366.53,146.49
			c1.22,0,2.25-0.32,3.09-0.96c0.84-0.64,1.48-1.53,1.92-2.67c0.44-1.14,0.66-2.46,0.66-3.95c0-1.48-0.22-2.77-0.65-3.89
			c-0.43-1.11-1.07-1.98-1.91-2.61c-0.84-0.62-1.88-0.94-3.12-0.94c-1.29,0-2.36,0.33-3.22,0.99c-0.86,0.66-1.5,1.55-1.92,2.67
			c-0.43,1.12-0.64,2.38-0.64,3.77c0,1.41,0.22,2.69,0.65,3.84c0.43,1.15,1.08,2.06,1.93,2.73
			C364.2,146.15,365.26,146.49,366.53,146.49z"/>
		<path class="st2" d="M400.22,129v2.58h-10.68V129H400.22z M392.74,148.81v-22.54c0-1.14,0.27-2.08,0.8-2.84
			c0.53-0.76,1.23-1.32,2.08-1.7c0.85-0.38,1.75-0.57,2.7-0.57c0.75,0,1.36,0.06,1.83,0.18c0.47,0.12,0.83,0.23,1.06,0.34
			l-0.88,2.63c-0.15-0.05-0.37-0.12-0.64-0.19c-0.27-0.08-0.63-0.12-1.06-0.12c-1.01,0-1.73,0.25-2.17,0.76
			c-0.44,0.51-0.66,1.25-0.66,2.23v21.82H392.74z"/>
		<path class="st2" d="M411.72,149.22c-1.79,0-3.36-0.43-4.7-1.28c-1.35-0.85-2.39-2.04-3.15-3.57c-0.75-1.53-1.13-3.32-1.13-5.37
			c0-2.06,0.38-3.86,1.13-5.4c0.75-1.54,1.8-2.73,3.15-3.59c1.35-0.85,2.91-1.28,4.7-1.28c1.79,0,3.35,0.43,4.7,1.28
			c1.35,0.85,2.39,2.05,3.15,3.59c0.75,1.54,1.13,3.34,1.13,5.4c0,2.05-0.38,3.83-1.13,5.37c-0.75,1.53-1.8,2.72-3.15,3.57
			C415.08,148.8,413.51,149.22,411.72,149.22z M411.72,146.49c1.36,0,2.48-0.35,3.35-1.04c0.88-0.7,1.53-1.61,1.95-2.75
			s0.63-2.36,0.63-3.69c0-1.32-0.21-2.56-0.63-3.7c-0.42-1.14-1.07-2.07-1.95-2.77c-0.88-0.7-1.99-1.06-3.35-1.06
			c-1.36,0-2.48,0.35-3.35,1.06c-0.88,0.71-1.53,1.63-1.95,2.77c-0.42,1.14-0.63,2.38-0.63,3.7c0,1.32,0.21,2.55,0.63,3.69
			s1.07,2.05,1.95,2.75C409.24,146.14,410.36,146.49,411.72,146.49z"/>
		<path class="st2" d="M425.34,148.81V129h2.94V132h0.21c0.36-0.98,1.01-1.78,1.96-2.39c0.95-0.61,2.01-0.92,3.2-0.92
			c0.22,0,0.5,0,0.84,0.01c0.33,0.01,0.59,0.02,0.76,0.04v3.09c-0.1-0.03-0.34-0.07-0.7-0.12c-0.37-0.06-0.75-0.08-1.15-0.08
			c-0.96,0-1.82,0.2-2.57,0.6c-0.75,0.4-1.35,0.95-1.78,1.65c-0.43,0.7-0.65,1.5-0.65,2.39v12.53H425.34z"/>
		<path class="st2" d="M451.03,156.24c-0.52,0-0.98-0.04-1.38-0.12c-0.4-0.08-0.68-0.16-0.84-0.24l0.77-2.68
			c0.74,0.19,1.39,0.26,1.96,0.21c0.57-0.05,1.07-0.3,1.52-0.75c0.44-0.45,0.85-1.18,1.22-2.19l0.57-1.55L447.52,129h3.3l5.47,15.78
			h0.21l5.47-15.78h3.3l-8.41,22.7c-0.38,1.02-0.85,1.87-1.41,2.55c-0.56,0.67-1.21,1.18-1.94,1.5S451.95,156.24,451.03,156.24z"/>
		<path class="st2" d="M476.61,149.22c-1.79,0-3.36-0.43-4.7-1.28c-1.35-0.85-2.39-2.04-3.15-3.57c-0.75-1.53-1.13-3.32-1.13-5.37
			c0-2.06,0.38-3.86,1.13-5.4c0.75-1.54,1.8-2.73,3.15-3.59c1.35-0.85,2.91-1.28,4.7-1.28c1.79,0,3.35,0.43,4.7,1.28
			c1.35,0.85,2.39,2.05,3.15,3.59c0.75,1.54,1.13,3.34,1.13,5.4c0,2.05-0.38,3.83-1.13,5.37c-0.75,1.53-1.8,2.72-3.15,3.57
			C479.97,148.8,478.4,149.22,476.61,149.22z M476.61,146.49c1.36,0,2.48-0.35,3.35-1.04c0.88-0.7,1.53-1.61,1.95-2.75
			s0.63-2.36,0.63-3.69c0-1.32-0.21-2.56-0.63-3.7c-0.42-1.14-1.07-2.07-1.95-2.77c-0.88-0.7-1.99-1.06-3.35-1.06
			c-1.36,0-2.48,0.35-3.35,1.06c-0.88,0.71-1.53,1.63-1.95,2.77c-0.42,1.14-0.63,2.38-0.63,3.7c0,1.32,0.21,2.55,0.63,3.69
			c0.42,1.14,1.07,2.05,1.95,2.75C474.14,146.14,475.25,146.49,476.61,146.49z"/>
		<path class="st2" d="M502.71,140.71V129h3.04v19.81h-3.04v-3.35h-0.21c-0.46,1.01-1.19,1.86-2.17,2.56
			c-0.98,0.7-2.22,1.05-3.71,1.05c-1.24,0-2.34-0.27-3.3-0.82s-1.72-1.37-2.27-2.48c-0.55-1.1-0.83-2.5-0.83-4.18V129h3.04v12.38
			c0,1.44,0.41,2.6,1.22,3.46c0.81,0.86,1.85,1.29,3.11,1.29c0.76,0,1.53-0.19,2.31-0.58c0.79-0.39,1.45-0.98,1.99-1.78
			C502.45,142.97,502.71,141.95,502.71,140.71z"/>
	</g>
	<g>
		<path class="st3" d="M227.42,388.43H49.91V128.35h177.5V388.43z M56.81,381.53h163.71V135.25H56.81V381.53z"/>
	</g>
</g>
</svg>
